<?xml version="1.0" standalone="no"?>
<!DOCTYPE svg PUBLIC "-//W3C//DTD SVG 20010904//EN" "http://www.w3.org/TR/2001/REC-SVG-20010904/DTD/svg10.dtd">
<svg version="1.0" xmlns="http://www.w3.org/2000/svg"
    width="261.000000pt" height="261.000000pt" viewBox="0 0 261.000000 261.000000"
    preserveAspectRatio="xMidYMid meet">
    <metadata>
Created by potrace 1.14, written by Peter Selinger 2001-2017
</metadata>
    <g transform="translate(0.000000,261.000000) scale(0.100000,-0.100000)"
        fill="#000000" stroke="none">
        <path d="M1200 2450 c-8 -5 -28 -10 -45 -10 -26 0 -71 -12 -150 -40 -59 -21
-163 -80 -204 -116 -25 -23 -57 -63 -69 -90 -13 -27 -27 -57 -33 -66 -5 -10
-9 -29 -9 -42 0 -14 -4 -27 -9 -30 -5 -3 -12 -34 -16 -68 -4 -35 -14 -92 -22
-128 -34 -153 -27 -246 37 -500 14 -53 21 -230 9 -230 -5 0 -17 17 -27 38 -9
20 -19 39 -22 42 -3 3 -14 25 -25 50 -10 25 -29 62 -42 82 -13 21 -23 40 -23
42 0 3 -35 79 -78 168 -44 90 -86 179 -95 198 -38 85 -81 180 -107 235 -15 33
-37 81 -48 106 -20 44 -23 46 -61 46 -32 0 -46 -6 -66 -29 -25 -28 -52 -30
-41 -1 3 8 1 11 -4 8 -14 -9 -12 -32 5 -71 8 -19 22 -49 30 -68 8 -19 15 -36
15 -39 0 -3 16 -41 36 -84 37 -80 50 -108 128 -275 25 -54 46 -102 46 -108 0
-5 5 -10 10 -10 6 0 10 -5 10 -11 0 -10 70 -153 161 -329 19 -36 34 -66 35
-68 1 -1 25 9 55 22 40 19 55 22 61 13 6 -9 12 -9 29 1 11 7 23 12 25 10 6 -6
-107 -83 -141 -95 -16 -7 -45 -15 -64 -18 -24 -5 -30 -10 -20 -16 8 -5 28 -6
46 -3 27 5 37 1 69 -31 34 -34 36 -39 20 -50 -14 -10 -26 -10 -64 2 -26 9 -59
18 -75 20 -33 6 -93 -20 -108 -48 -14 -28 -1 -79 27 -106 31 -29 30 -45 -4
-65 -52 -31 -132 -100 -132 -114 0 -8 -4 -14 -9 -14 -5 0 -11 -26 -13 -57 -3
-31 -10 -59 -16 -61 -7 -2 -12 -10 -12 -17 0 -7 -4 -15 -9 -17 -11 -4 -71
-135 -71 -157 0 -9 -4 -21 -8 -27 -5 -5 -17 -45 -26 -89 -10 -44 -22 -88 -27
-97 -5 -10 -9 -22 -9 -28 0 -7 414 -10 1255 -10 957 0 1255 3 1255 12 0 6 -4
25 -9 42 -5 17 -17 60 -26 96 -10 36 -21 74 -25 85 -4 11 -16 43 -26 70 -9 28
-32 73 -49 100 -18 29 -35 72 -40 100 -7 48 -20 85 -35 95 -4 3 -20 15 -36 28
-16 13 -80 56 -143 95 -88 55 -116 79 -122 99 -4 15 -13 34 -21 41 -23 23 -80
47 -112 47 -52 0 -60 11 -53 72 5 51 52 176 70 189 5 4 13 44 18 90 20 192 25
315 18 519 -6 205 -19 314 -40 335 -5 5 -9 15 -9 22 0 20 -63 115 -97 148 -15
15 -44 37 -63 49 -46 29 -210 92 -280 107 -76 16 -261 22 -280 9z m350 -740
c4 -7 16 -9 28 -6 23 8 120 -17 145 -37 20 -15 25 -89 9 -144 -15 -49 -60 -99
-99 -107 -43 -10 -130 11 -188 44 -54 31 -82 32 -147 5 -10 -4 -18 -3 -18 3 0
25 -48 21 -109 -11 -53 -26 -79 -33 -143 -36 -79 -3 -79 -3 -111 32 -33 34
-67 118 -67 163 0 13 10 32 22 43 27 26 120 53 153 45 15 -4 25 -2 25 4 0 16
71 20 293 17 147 -1 201 -5 207 -15z m-772 -741 c7 -12 11 -24 8 -27 -6 -6
-35 27 -36 41 0 14 15 7 28 -14z" />
        <path d="M977 1680 c-15 -12 -36 -35 -48 -53 -18 -26 -12 -22 32 18 29 28 56
51 58 53 2 1 0 2 -6 2 -6 0 -22 -9 -36 -20z" />
        <path d="M1581 1698 c2 -2 28 -25 58 -53 29 -27 49 -40 43 -29 -14 26 -78 84
-94 84 -6 0 -9 -1 -7 -2z" />
        <path d="M1008 1660 c-39 -43 -38 -90 3 -124 40 -34 74 -33 110 3 42 42 36 92
-15 133 -32 26 -67 22 -98 -12z m48 -11 c10 -17 -13 -36 -27 -22 -12 12 -4 33
11 33 5 0 12 -5 16 -11z m49 -108 c-3 -6 -11 -8 -17 -5 -6 4 -5 9 3 15 16 10
23 4 14 -10z" />
        <path d="M1478 1658 c-37 -43 -36 -81 1 -119 38 -38 74 -38 112 0 40 40 39 79
-3 120 -42 41 -75 40 -110 -1z m52 -12 c0 -20 -19 -31 -32 -18 -6 6 -7 15 -4
21 10 16 36 13 36 -3z m42 -108 c-7 -7 -12 -8 -12 -2 0 6 3 14 7 17 3 4 9 5
12 2 2 -3 -1 -11 -7 -17z" />
        <path d="M145 2161 c-6 -11 9 -23 19 -14 9 9 7 23 -3 23 -6 0 -12 -4 -16 -9z" />
    </g>
</svg>